<?xml version="1.0" encoding="utf-8"?>
<!-- Generator: Adobe Illustrator 22.0.0, SVG Export Plug-In . SVG Version: 6.00 Build 0)  -->
<svg version="1.1" id="Layer_1" xmlns="http://www.w3.org/2000/svg" xmlns:xlink="http://www.w3.org/1999/xlink" x="0px" y="0px"
	 viewBox="0 0 6.7 11.5" style="enable-background:new 0 0 6.7 11.5;" xml:space="preserve">
<style type="text/css">
	.st0{filter:url(#Adobe_OpacityMaskFilter); fill: #FFFFFF;}
	.st1{fill:#FFFFFF;}
	.st2{mask:url(#mask-2_1_); fill: #FFFFFF;}
	.st3{fill: #FFFFFF;}
</style>
<title>827E3273-2F27-4424-8968-43253E9536E0</title>
<desc>Created with sketchtool.</desc>
<g id="Symbols">
	<g id="Icon-_x2F_-Keyboard-Arrow---Down-_x2F_-Rounded">
		<g id="icon_x2F_navigation_x2F_expand_x5F_more_x5F_24px">
		</g>
		<defs>
			<filter id="Adobe_OpacityMaskFilter" filterUnits="userSpaceOnUse" x="-8.7" y="-6.3" width="24" height="24">
				<feColorMatrix  type="matrix" values="1 0 0 0 0  0 1 0 0 0  0 0 1 0 0  0 0 0 1 0"/>
			</filter>
		</defs>
		<mask maskUnits="userSpaceOnUse" x="-8.7" y="-6.3" width="24" height="24" id="mask-2_1_">
			<g class="st0">
				<path id="path-1_1_" class="st1" d="M6.3,9.6L2.5,5.7l3.9-3.9c0.2-0.2,0.3-0.4,0.3-0.7c0-0.3-0.1-0.5-0.3-0.7
					C5.9,0,5.3,0,4.9,0.4L0.3,5c-0.4,0.4-0.4,1,0,1.4L4.9,11c0.4,0.4,1,0.4,1.4,0C6.7,10.6,6.7,10,6.3,9.6z"/>
			</g>
		</mask>
		<g id="_x2731_-_x2F_-Color-_x2F_-Icons-_x2F_-Selected-_x2F_-On-Surface-_x2F_-Inactive" class="st2">
			<rect id="Rectangle" x="-8.7" y="-6.3" class="st3" width="24" height="24"/>
		</g>
	</g>
</g>
</svg>
