<?xml version="1.0" encoding="utf-8"?>
<!-- Generator: Adobe Illustrator 22.0.0, SVG Export Plug-In . SVG Version: 6.00 Build 0)  -->
<svg version="1.1" id="Layer_1" xmlns="http://www.w3.org/2000/svg" xmlns:xlink="http://www.w3.org/1999/xlink" x="0px" y="0px"
	 viewBox="0 0 25 30" style="enable-background:new 0 0 25 30;" xml:space="preserve">
<style type="text/css">
	.st0{fill:#f47920;}
</style>
<path class="st0" d="M9.2,1.8L11,0v3.9c0.5-0.1,1-0.1,1.5-0.1s0.9,0,1.4,0.1V1.8L15.9,0v4.3c0.3,0.1,0.5,0.2,0.7,0.3
	C17.9,5,19,5.8,20,6.6c1,0.8,1.9,1.9,2.5,3.2c0.6,1.2,1.1,2.5,1.3,3.9L22,15.5c0-1.8-0.5-3.4-1.3-4.9c-0.5-0.7-0.9-1.4-1.5-1.9
	C18.6,8,18,7.4,17.2,7.1c-0.5-0.3-0.9-0.6-1.4-0.7v7.2l-1.9,2V5.8c-0.5-0.1-1-0.1-1.5-0.1s-0.9,0-1.4,0.1v7.7l-1.9,2V6.3
	C7.9,6.8,6.7,7.5,5.6,8.5c-1.2,1.2-2,2.7-2.5,4.3c-0.2,0.9-0.3,1.8-0.3,2.7c0,2.6,1,5.1,2.8,7C6.2,23,6.8,23.6,7.6,24s1.5,0.7,2.3,1
	c0.6,0.2,1.3,0.3,1.9,0.4h10.2l-1.9,1.9H1l1.9-1.9h3.4C5.6,25,5,24.5,4.4,23.9c-1.5-1.7-2.5-3.4-3.1-5.3c-0.3-1-0.4-2-0.4-3.2
	c0-1.1,0.1-2.1,0.4-3.2S2,10.4,2.6,9.6C3,8.7,3.7,7.9,4.3,7.1c1.3-1.4,3-2.3,4.7-3L9.2,1.8L9.2,1.8z"/>
</svg>
