<svg xmlns="http://www.w3.org/2000/svg" width="26" height="23" viewBox="0 0 26 23">
    <defs>
        <filter id="a" width="133.3%" height="138.1%" x="-16.7%" y="-19%" filterUnits="objectBoundingBox">
            <feOffset dy="1" in="SourceAlpha" result="shadowOffsetOuter1"/>
            <feGaussianBlur in="shadowOffsetOuter1" result="shadowBlurOuter1" stdDeviation=".5"/>
            <feColorMatrix in="shadowBlurOuter1" result="shadowMatrixOuter1" values="0 0 0 0 0 0 0 0 0 0 0 0 0 0 0 0 0 0 0.2 0"/>
            <feMerge>
                <feMergeNode in="shadowMatrixOuter1"/>
                <feMergeNode in="SourceGraphic"/>
            </feMerge>
        </filter>
    </defs>
    <path fill="#FFF" fill-rule="nonzero" d="M12 21c-.342 0-.671-.122-.928-.343-.97-.834-1.904-1.617-2.729-2.308l-.004-.004c-2.418-2.026-4.506-3.777-5.959-5.5C.756 10.917 0 9.09 0 7.094c0-1.94.676-3.73 1.904-5.039C3.146.73 4.85 0 6.704 0 8.09 0 9.36.43 10.476 1.28A7.645 7.645 0 0 1 12 2.846c.45-.612.96-1.137 1.525-1.566A6.102 6.102 0 0 1 17.295 0c1.854 0 3.559.73 4.801 2.055C23.324 3.365 24 5.155 24 7.094c0 1.996-.756 3.823-2.38 5.75-1.453 1.724-3.54 3.474-5.958 5.5-.826.693-1.763 1.478-2.734 2.313-.257.221-.587.343-.928.343zM6.705 1.383c-1.457 0-2.794.571-3.768 1.61-.987 1.053-1.531 2.51-1.531 4.1 0 1.68.634 3.181 2.057 4.87 1.375 1.631 3.42 3.345 5.788 5.33l.004.003c.828.694 1.766 1.48 2.743 2.32.983-.84 1.922-1.629 2.752-2.324 2.368-1.984 4.413-3.698 5.787-5.33 1.423-1.688 2.057-3.19 2.057-4.868 0-1.592-.544-3.048-1.531-4.102-.973-1.038-2.311-1.61-3.767-1.61a4.713 4.713 0 0 0-2.911.992c-.771.586-1.308 1.327-1.623 1.846a.883.883 0 0 1-.762.426c-.315 0-.6-.16-.762-.426-.315-.519-.852-1.26-1.623-1.846a4.713 4.713 0 0 0-2.91-.991z" filter="url(#a)" transform="translate(1)"/>
</svg>
