<svg xmlns="http://www.w3.org/2000/svg" width="26" height="25" viewBox="0 0 26 25">
    <g fill="none" fill-rule="evenodd">
        <rect width="26" height="25" fill="#17424D" rx="2.299"/>
        <path fill="#FFF" fill-rule="nonzero" d="M20.487 10.828a.268.268 0 0 0-.217-.179l-4.857-.691-2.172-4.311A.269.269 0 0 0 13 5.5a.268.268 0 0 0-.241.147l-2.173 4.311-4.857.691a.268.268 0 0 0-.217.18.259.259 0 0 0 .068.269l3.515 3.356-.83 4.738a.261.261 0 0 0 .107.257.27.27 0 0 0 .282.02L13 17.232l4.344 2.237a.273.273 0 0 0 .283-.02.26.26 0 0 0 .107-.257l-.83-4.738 3.515-3.356a.26.26 0 0 0 .068-.27z"/>
    </g>
</svg>
